<?xml version="1.0" encoding="UTF-8"?><svg id="uuid-ae94cf6a-5939-4fc3-9b8c-984092ab26f1" xmlns="http://www.w3.org/2000/svg" viewBox="0 0 64 64"><style>path{fill:#131725}@media (prefers-color-scheme:dark){path{fill:#efe8e2}}</style><path d="M43.31,19.38h-19.72c-.75,0-1.35.6-1.34,1.42v5.16c0,.75.6,1.42,1.34,1.42h8.52s0,.15,0,.15l-10.61,19.57v.75c0,.75.67,1.42,1.42,1.42h18.9c.82,0,1.42-.67,1.42-1.42v-5.08c0-.82-.6-1.42-1.42-1.42h-8.07s0-.22,0-.22l10.83-19.72c.6-.97-.15-2.02-1.27-2.02Z"/><path d="M63.6,39.33c-.1-.69-.22-1.38-.33-2.07-.11-.67-.23-1.34-.35-2.01l-2.98-16.87c-.12-.67-.24-1.34-.36-2.01-.13-.69-.26-1.38-.4-2.06-.31-1.5-.66-2.99-1.19-4.43-.54-1.46-1.23-2.78-2.16-4.03-.92-1.22-2.03-2.3-3.29-3.18-1.26-.88-2.65-1.56-4.11-2.01C46.94.2,45.46,0,43.9,0c-1.53,0-3.06.17-4.57.4-.69.1-1.38.22-2.07.33-.82.14-1.64.28-2.46.43l-15.98,2.82c-.82.14-1.64.29-2.45.44-.69.13-1.38.26-2.06.4-1.5.31-2.99.66-4.43,1.19-1.46.54-2.78,1.23-4.03,2.16-1.22.92-2.3,2.03-3.18,3.29-.88,1.26-1.56,2.65-2.01,4.11C.2,17.06,0,18.54,0,20.1c0,1.53.17,3.06.4,4.57.1.69.22,1.38.33,2.07.14.82.28,1.64.43,2.46l2.82,15.98c.14.82.29,1.64.44,2.46.13.69.26,1.38.4,2.06.31,1.5.66,2.99,1.19,4.43.54,1.46,1.23,2.78,2.16,4.03.92,1.22,2.03,2.3,3.29,3.18,1.26.88,2.65,1.56,4.11,2.01,1.49.46,2.97.65,4.53.66,1.53,0,3.06-.17,4.57-.4.69-.1,1.38-.22,2.07-.33.67-.11,1.34-.23,2.01-.35l16.87-2.98c.67-.12,1.34-.24,2.01-.36.69-.13,1.38-.26,2.06-.4,1.5-.31,2.99-.66,4.43-1.19,1.46-.54,2.78-1.23,4.03-2.16,1.22-.92,2.3-2.03,3.18-3.29.88-1.26,1.56-2.65,2.01-4.11.46-1.49.65-2.97.66-4.53,0-1.53-.17-3.06-.4-4.57ZM51.52,52.02l-30.9,5.45c-1.63.29-3.18-.8-3.46-2.42L10.11,15.07c-.29-1.63.8-3.18,2.42-3.46l23.06-4.07c.81-.14,1.59.4,1.73,1.21l1.07,6.07c.21,1.22,1.38,2.03,2.6,1.82l5.64-.99c.81-.14,1.59.4,1.73,1.21l5.59,31.69c.29,1.63-.8,3.18-2.42,3.46Z"/></svg>