<?xml version="1.0" encoding="UTF-8"?><svg id="uuid-2d9f75b2-2268-4772-9ec9-caa628977d67" xmlns="http://www.w3.org/2000/svg" viewBox="0 0 360 360"><path d="M350.32,224.51l-25.5-144.59c-8.3-47.09-53.21-78.54-100.31-70.24l-144.59,25.5C32.83,43.48,1.38,88.39,9.68,135.49l25.5,144.59c8.3,47.09,53.21,78.54,100.31,70.24l144.59-25.5c47.09-8.3,78.54-53.21,70.24-100.31ZM284.7,292.38l-173.33,30.56c-4.35.77-8.5-2.15-9.27-6.49L61.12,84.04c-1.53-8.7,4.28-17,12.98-18.54l123.46-21.77c4.35-.77,8.5,2.14,9.27,6.49l5.73,32.5c1.15,6.53,7.37,10.88,13.9,9.73l30.17-5.32c4.35-.77,8.5,2.14,9.27,6.49l31.78,180.22c1.53,8.7-4.28,17-12.98,18.54Z" style="fill:#131725;"/><path d="M239.81,112.39h-105.59c-4,0-7.2,3.2-7.2,7.6v27.6c0,4,3.2,7.6,7.19,7.6h45.6s0,.8,0,.8l-56.8,104.79v4c0,4,3.6,7.6,7.6,7.59h101.2c4.4,0,7.6-3.6,7.59-7.6v-27.19c0-4.41-3.2-7.6-7.6-7.6h-43.2s0-1.2,0-1.2l57.99-105.59c3.2-5.21-.8-10.81-6.8-10.8Z" style="fill:#131725;"/></svg>